<?xml version="1.0" encoding="utf-8"?>
<!-- Generator: Adobe Illustrator 25.0.1, SVG Export Plug-In . SVG Version: 6.00 Build 0)  -->
<svg version="1.1" id="Layer_1" xmlns="http://www.w3.org/2000/svg" xmlns:xlink="http://www.w3.org/1999/xlink" x="0px" y="0px"
	 viewBox="0 0 100 100" style="enable-background:new 0 0 100 100;" xml:space="preserve">
<style type="text/css">
	.st0{fill:url(#SVGID_1_);}
	.st1{fill:#FFFFFF;}
</style>
<g>
	<linearGradient id="SVGID_1_" gradientUnits="userSpaceOnUse" x1="8.5277" y1="50" x2="73.9636" y2="50">
		<stop  offset="0" style="stop-color:#F6921E"/>
		<stop  offset="1" style="stop-color:#D71921"/>
	</linearGradient>
	<path class="st0" d="M69.4,37.8l-2.3,10.3c-0.4,1.8-0.7,2.7-1,4.7h-0.1c-0.3-2-0.6-3-1.1-4.8l-2.4-10.3h-4.5L55.8,48
		c-0.4,1.6-0.8,3-1,4.9h-0.1c-0.3-1.9-0.7-3.3-1.1-4.9l-6.8-29.2h0l-0.9-4.1H29L8.5,50L29,85.4h8.2h5.2l-2.2-4.1H35h-3.6L13.3,50
		l18.1-31.3h10.6l10.4,41.4h4.3l3.8-15.5h0.1l3.5,15.5h4.2L74,37.8H69.4z"/>
	<path class="st1" d="M69.8,14.6h-9h-3.8v0h-1l1,3.9v0.2h0h0h4.7h5.6L85.5,50L67.5,81.3h-11L40.1,51.1c3-0.9,4.6-2.8,4.6-6.4
		c0-5-3.3-6.9-8.8-6.9h-8.4v22.3h4.8v-8.4h2.8l16.1,29.6l2.2,4.1h16.3L90.3,50L69.8,14.6z M35.7,47.9h-3.4v-6.1h3.4
		c2.8,0,4.2,0.8,4.2,3C39.9,47.1,38.6,47.9,35.7,47.9z"/>
</g>
</svg>
